Coordinates
version=1
nRows=11
nColumns=40
inDegrees=yes

Units are S.I. units (second, meters, Newtons, ...)
If the header above contains a line with 'inDegrees', this indicates whether rotational values are in degrees (yes) or radians (no).

endheader
time	pelvis_tilt	pelvis_list	pelvis_rotation	pelvis_tx	pelvis_ty	pelvis_tz	hip_flexion_r	hip_adduction_r	hip_rotation_r	knee_angle_r	knee_angle_r_beta	ankle_angle_r	subtalar_angle_r	mtp_angle_r	hip_flexion_l	hip_adduction_l	hip_rotation_l	knee_angle_l	knee_angle_l_beta	ankle_angle_l	subtalar_angle_l	mtp_angle_l	lumbar_extension	lumbar_bending	lumbar_rotation	arm_flex_r	arm_add_r	arm_rot_r	elbow_flex_r	pro_sup_r	wrist_flex_r	wrist_dev_r	arm_flex_l	arm_add_l	arm_rot_l	elbow_flex_l	pro_sup_l	wrist_flex_l	wrist_dev_l
      9.97500000	     88.82351454	     66.58583938	     89.08202653	      0.37879969	      0.61629425	      0.83385295	     52.15130211	    -10.07655591	     -7.78504367	     24.95096709	      0.43547653	     -3.15583754	      0.00000000	      0.00000000	     47.60535386	    -15.08854731	    -14.51013554	     18.74254800	      0.32711917	     -5.58832614	      0.00000000	      0.00000000	    -27.90608086	     -7.44896235	      4.18379229	     37.23492422	     -2.30126389	      7.95159422	     12.23578184	     37.30480322	      0.00000000	      0.00000000	     37.06134465	     -0.75955151	    -20.76866569	     18.83557343	     37.79773659	      0.00000000	      0.00000000
      9.98000000	     88.81799673	     66.36256913	     89.07387349	      0.37973422	      0.61639864	      0.83326392	     52.46217980	    -10.06474945	     -7.78518319	     24.95207475	      0.43549586	     -3.23902005	      0.00000000	      0.00000000	     47.91903237	    -15.11250054	    -14.50559572	     18.75067327	      0.32726099	     -5.66223051	      0.00000000	      0.00000000	    -27.98223081	     -7.48374987	      4.19200823	     37.60803664	     -2.15446524	      7.18679587	     12.08507267	     36.53332844	      0.00000000	      0.00000000	     37.19777414	     -0.77608862	    -20.54183447	     19.05476418	     37.01343566	      0.00000000	      0.00000000
      9.98500000	     88.80314314	     66.09729238	     89.06873305	      0.38078148	      0.61656437	      0.83255146	     52.85722080	    -10.04271832	     -7.74314436	     25.00226473	      0.43637184	     -3.35289686	      0.00000000	      0.00000000	     48.29146033	    -15.13964215	    -14.46498363	     18.77269887	      0.32764540	     -5.76640512	      0.00000000	      0.00000000	    -27.98020155	     -7.55765216	      4.28317591	     37.57738115	     -2.47799139	      8.53919032	     12.39154914	     37.59890362	      0.00000000	      0.00000000	     36.73815738	     -1.24864854	    -17.24517118	     19.69199402	     38.09303872	      0.00000000	      0.00000000
      9.99000000	     88.82637625	     66.13148809	     89.06839014	      0.38148814	      0.61661826	      0.83245786	     52.86514227	    -10.08122428	     -7.90218739	     25.00376301	      0.43639799	     -3.40778119	      0.00000000	      0.00000000	     48.31831029	    -15.15803183	    -14.55989767	     18.78101980	      0.32779063	     -5.81786534	      0.00000000	      0.00000000	    -28.37949382	     -7.61140438	      4.41834418	     36.89033117	     -3.16141975	      9.68719676	     14.09039157	     38.77205166	      0.00000000	      0.00000000	     36.27897089	     -1.86541026	    -13.60480117	     20.41040510	     39.21059462	      0.00000000	      0.00000000
      9.99500000	     88.75821443	     65.63649655	     89.03423352	      0.38270315	      0.61689417	      0.83132950	     53.51134111	     -9.97279389	     -7.62567965	     25.00110445	      0.43635159	     -3.46772001	      0.00000000	      0.00000000	     48.94775335	    -15.23546570	    -14.56121561	     18.84281114	      0.32886909	     -5.90443240	      0.00000000	      0.00000000	    -28.10360076	     -7.68067202	      4.29664388	     38.03485748	     -2.75328805	     10.67358471	     12.30877278	     38.84162658	      0.00000000	      0.00000000	     36.27075401	     -1.94528802	    -14.06195643	     20.69424445	     39.43807432	      0.00000000	      0.00000000
     10.00000000	     88.79444826	     65.47681115	     89.01990120	      0.38342004	      0.61695251	      0.83091820	     53.73332676	    -10.00414102	     -7.78510939	     25.01369660	      0.43657136	     -3.58233672	      0.00000000	      0.00000000	     49.18110204	    -15.24886843	    -14.55969960	     18.83464326	      0.32872654	     -6.03949498	      0.00000000	      0.00000000	    -28.28866463	     -7.65786448	      4.20085829	     38.48658063	     -2.24863654	      7.52260321	     12.28098263	     36.90095126	      0.00000000	      0.00000000	     38.34502056	     -0.84688632	    -20.53209981	     18.77175825	     37.40499911	      0.00000000	      0.00000000
     10.00500000	     88.79282575	     65.32146848	     89.01364534	      0.38431589	      0.61704996	      0.83051239	     53.96214363	     -9.99520804	     -7.79837468	     24.99778369	      0.43629363	     -3.74675402	      0.00000000	      0.00000000	     49.40830964	    -15.26633368	    -14.57731724	     18.82173385	      0.32850123	     -6.12285585	      0.00000000	      0.00000000	    -28.45390626	     -7.69406865	      4.17408242	     38.85866713	     -2.16098248	      7.34143429	     12.14223507	     36.65381937	      0.00000000	      0.00000000	     38.41641375	     -0.93662224	    -19.99494201	     19.04013453	     37.16938238	      0.00000000	      0.00000000
     10.01000000	     88.79215627	     65.03736025	     89.00281078	      0.38528930	      0.61717973	      0.82978196	     54.34632264	     -9.98200154	     -7.77752566	     25.02984060	      0.43685313	     -3.80158640	      0.00000000	      0.00000000	     49.79069891	    -15.28271695	    -14.52664133	     18.80731157	      0.32824951	     -6.24675815	      0.00000000	      0.00000000	    -28.43358323	     -7.75162350	      4.20611246	     38.98414461	     -2.36232830	      8.36579735	     12.18789691	     37.45916065	      0.00000000	      0.00000000	     37.95576854	     -1.30038606	    -17.31617161	     19.90245844	     38.02127677	      0.00000000	      0.00000000
     10.01500000	     88.78950954	     64.87974292	     88.98136916	      0.38610806	      0.61726141	      0.82933577	     54.56973074	     -9.96528412	     -7.80051589	     24.99869265	      0.43630950	     -3.94789669	      0.00000000	      0.00000000	     50.01955045	    -15.31214179	    -14.57305861	     18.80322875	      0.32817825	     -6.33469499	      0.00000000	      0.00000000	    -28.60190818	     -7.78272613	      4.16235803	     39.39672284	     -2.25516768	      8.13288881	     11.97267309	     37.38199568	      0.00000000	      0.00000000	     38.35123099	     -1.17685974	    -18.37476606	     19.75816214	     37.98433163	      0.00000000	      0.00000000
     10.02000000	     88.78987276	     64.66250401	     88.95981583	      0.38699368	      0.61741715	      0.82873488	     54.87520721	     -9.93103202	     -7.79341015	     24.99846774	      0.43630557	     -4.02406937	      0.00000000	      0.00000000	     50.31976715	    -15.34665680	    -14.56085775	     18.81361595	      0.32835954	     -6.45351689	      0.00000000	      0.00000000	    -28.67066679	     -7.83375964	      4.13968270	     39.58045887	     -2.27053826	      8.40952554	     12.05833075	     37.61545946	      0.00000000	      0.00000000	     38.38014693	     -1.34993831	    -17.36003990	     20.03904818	     38.23892355	      0.00000000	      0.00000000
     10.02500000	     88.77403601	     64.37974239	     88.95272027	      0.38792304	      0.61754814	      0.82798196	     55.26198706	     -9.90605772	     -7.77181689	     25.02733823	      0.43680946	     -4.12387409	      0.00000000	      0.00000000	     50.69688479	    -15.36471325	    -14.51556302	     18.82411546	      0.32854279	     -6.51452670	      0.00000000	      0.00000000	    -28.65570610	     -7.89730696	      4.24681390	     39.71269842	     -2.44447508	      8.88956830	     12.14678110	     38.00421512	      0.00000000	      0.00000000	     38.40949075	     -1.50268776	    -16.01292471	     20.24810063	     38.64996315	      0.00000000	      0.00000000
